<?xml version="1.0" encoding="UTF-8"?>
<svg id="Capa_2" data-name="Capa 2" xmlns="http://www.w3.org/2000/svg" viewBox="0 0 310.5 328.73">
  <defs>
    <style>
      .cls-1 {
        fill: #201c43;
        stroke-width: 0px;
      }
    </style>
  </defs>
  <g id="Capa_1-2" data-name="Capa 1">
    <g id="UDYNvt.tif">
      <g>
        <path class="cls-1" d="m254.82,198.8c0-25.91-.1-51.82.08-77.73.04-5.13-1.94-8.18-6.36-10.58-48.57-26.35-97.07-52.82-145.6-79.25-.9-.49-2.09-.73-2.2-1.97-.15-1.56,1.26-1.78,2.25-2.33,15.35-8.4,30.76-16.72,46.04-25.26,4.11-2.3,7.65-2.2,11.76.05,47.54,26.04,95.12,52.02,142.78,77.85,4.66,2.53,6.44,5.68,6.42,10.89-.2,42.66-.25,85.32-.24,127.98,0,8.37.34,16.74.74,25.1.32,6.79-2.55,11.46-8.48,14.62-14.06,7.49-28.06,15.1-42.09,22.65-4.34,2.34-5.1,1.92-5.11-3.12-.03-26.3-.02-52.61-.02-78.91h.04Z"/>
        <path class="cls-1" d="m225.41,261.72c0,10.6-.1,21.19.04,31.79.06,4.41-1.57,7.26-5.58,9.37-14.79,7.78-29.43,15.84-44.14,23.77-4.83,2.6-5.71,2.16-5.49-3.28.82-19.88-.15-39.77.71-59.64.3-6.83-2.34-10.99-8.17-14.14-39.76-21.5-79.43-43.15-119.14-64.75-12.27-6.68-24.48-13.47-36.84-19.98-4.72-2.49-6.77-5.85-6.71-11.25.23-20.41.67-40.83-.08-61.21-.27-7.26,2.61-10.37,8.19-13.3,13.76-7.21,27.33-14.78,40.98-22.2,4.34-2.36,4.51-2.34,4.89,2.7.74,9.8.35,19.62.39,29.42.05,11.38.19,22.77-.07,34.14-.11,4.84,1.72,7.76,5.89,10.02,36.18,19.59,72.29,39.29,108.42,58.97,17.08,9.3,34.12,18.69,51.25,27.9,3.63,1.95,5.5,4.58,5.48,8.69-.05,10.99-.02,21.98-.02,32.97Z"/>
        <path class="cls-1" d="m225.42,160.73c0,8.51.02,17.01-.01,25.52-.01,3.65-1.05,4.29-4.2,2.57-44-24.07-87.99-48.16-132-72.22-2.94-1.61-4.33-3.77-4.3-7.23.15-16.74.14-33.49.19-50.23.01-3.86,1.42-4.71,4.75-2.9,41.96,22.89,83.96,45.71,125.86,68.7,10.28,5.64,9.86,3.5,9.73,16.55-.06,6.41-.01,12.82-.01,19.24h-.02Z"/>
        <path class="cls-1" d="m140.03,299.73c0,8.24,0,16.49,0,24.73,0,1.41.34,2.97-1.16,3.91-1.6,1-2.65-.32-3.87-.98-17.1-9.29-34.22-18.55-51.32-27.85-25.81-14.05-51.59-28.17-77.45-42.13C1.91,255.07.03,251.92.06,247.04c.13-16.48.04-32.97.03-49.45,0-3.07,1.22-3.84,3.81-2.42,25.65,14.06,51.29,28.14,76.96,42.17,17.99,9.83,36,19.64,54.08,29.3,3.7,1.98,5.25,4.56,5.14,8.76-.22,8.11-.07,16.22-.07,24.34,0,0,.01,0,.02,0Z"/>
      </g>
    </g>
  </g>
</svg>