<?xml version="1.0" encoding="UTF-8"?>
<svg id="Capa_2" data-name="Capa 2" xmlns="http://www.w3.org/2000/svg" viewBox="0 0 770.05 328.73">
  <defs>
    <style>
      .cls-1 {
        fill: #fff;
        stroke-width: 0px;
      }
    </style>
  </defs>
  <g id="Capa_1-2" data-name="Capa 1">
    <g>
      <g id="UDYNvt.tif">
        <g>
          <path class="cls-1" d="m254.82,198.8c0-25.91-.1-51.82.08-77.73.04-5.13-1.94-8.18-6.36-10.58-48.57-26.35-97.07-52.82-145.6-79.25-.9-.49-2.09-.73-2.2-1.97-.15-1.56,1.26-1.78,2.25-2.33,15.35-8.4,30.76-16.72,46.04-25.26,4.11-2.3,7.65-2.2,11.76.05,47.54,26.04,95.12,52.02,142.78,77.85,4.66,2.53,6.44,5.68,6.42,10.89-.2,42.66-.25,85.32-.24,127.98,0,8.37.34,16.74.74,25.1.32,6.79-2.55,11.46-8.48,14.62-14.06,7.49-28.06,15.1-42.09,22.65-4.34,2.34-5.1,1.92-5.11-3.12-.03-26.3-.02-52.61-.02-78.91h.04Z"/>
          <path class="cls-1" d="m225.41,261.72c0,10.6-.1,21.19.04,31.79.06,4.41-1.57,7.26-5.58,9.37-14.79,7.78-29.43,15.84-44.14,23.77-4.83,2.6-5.71,2.16-5.49-3.28.82-19.88-.15-39.77.71-59.64.3-6.83-2.34-10.99-8.17-14.14-39.76-21.5-79.43-43.15-119.14-64.75-12.27-6.68-24.48-13.47-36.84-19.98-4.72-2.49-6.77-5.85-6.71-11.25.23-20.41.67-40.83-.08-61.21-.27-7.26,2.61-10.37,8.19-13.3,13.76-7.21,27.33-14.78,40.98-22.2,4.34-2.36,4.51-2.34,4.89,2.7.74,9.8.35,19.62.39,29.42.05,11.38.19,22.77-.07,34.14-.11,4.84,1.72,7.76,5.89,10.02,36.18,19.59,72.29,39.29,108.42,58.97,17.08,9.3,34.12,18.69,51.25,27.9,3.63,1.95,5.5,4.58,5.48,8.69-.05,10.99-.02,21.98-.02,32.97Z"/>
          <path class="cls-1" d="m225.42,160.73c0,8.51.02,17.01-.01,25.52-.01,3.65-1.05,4.29-4.2,2.57-44-24.07-87.99-48.16-132-72.22-2.94-1.61-4.33-3.77-4.3-7.23.15-16.74.14-33.49.19-50.23.01-3.86,1.42-4.71,4.75-2.9,41.96,22.89,83.96,45.71,125.86,68.7,10.28,5.64,9.86,3.5,9.73,16.55-.06,6.41-.01,12.82-.01,19.24h-.02Z"/>
          <path class="cls-1" d="m140.03,299.73c0,8.24,0,16.49,0,24.73,0,1.41.34,2.97-1.16,3.91-1.6,1-2.65-.32-3.87-.98-17.1-9.29-34.22-18.55-51.32-27.85-25.81-14.05-51.59-28.17-77.45-42.13C1.91,255.07.03,251.92.06,247.04c.13-16.48.04-32.97.03-49.45,0-3.07,1.22-3.84,3.81-2.42,25.65,14.06,51.29,28.14,76.96,42.17,17.99,9.83,36,19.64,54.08,29.3,3.7,1.98,5.25,4.56,5.14,8.76-.22,8.11-.07,16.22-.07,24.34,0,0,.01,0,.02,0Z"/>
        </g>
      </g>
      <g>
        <path class="cls-1" d="m383.92,99.88h-26.08v14.3h23.06v13.29h-23.06v15.51h26.08v13.79h-43.3v-70.68h43.3v13.79Z"/>
        <path class="cls-1" d="m420.67,157.48c-15.2,0-27.09-7.55-27.59-21.85h18.32c.5,5.44,3.93,8.06,8.76,8.06s8.26-2.52,8.26-6.65c0-13.09-35.34-6.04-35.14-31.11,0-13.39,10.98-20.84,25.78-20.84s25.78,7.65,26.48,21.15h-18.63c-.3-4.53-3.52-7.25-8.16-7.35-4.13-.1-7.25,2.01-7.25,6.44,0,12.28,34.94,6.75,34.94,30.41,0,11.88-9.26,21.75-25.78,21.75Z"/>
        <path class="cls-1" d="m484.9,131.4h-10.67v25.37h-17.22v-70.68h27.89c17.32,0,25.98,9.77,25.98,22.76,0,11.68-7.95,22.55-25.98,22.55Zm-1.31-13.69c6.85,0,9.77-3.42,9.77-8.86s-2.92-8.86-9.77-8.86h-9.36v17.72h9.36Z"/>
        <path class="cls-1" d="m563.84,144.29h-26.38l-4.23,12.49h-18.02l25.57-70.68h19.94l25.58,70.68h-18.23l-4.23-12.49Zm-13.19-39.17l-8.66,25.88h17.42l-8.76-25.88Z"/>
        <path class="cls-1" d="m626.67,85.28c16.82,0,29.5,9.47,33.53,24.77h-18.93c-2.92-6.04-8.26-9.06-14.8-9.06-10.57,0-17.82,7.85-17.82,20.34s7.25,20.34,17.82,20.34c6.54,0,11.88-3.02,14.8-9.06h18.93c-4.03,15.31-16.72,24.67-33.53,24.67-20.84,0-35.54-14.8-35.54-35.95s14.7-36.05,35.54-36.05Z"/>
        <path class="cls-1" d="m670.77,86.09h17.22v70.68h-17.22v-70.68Z"/>
        <path class="cls-1" d="m733.9,157.48c-20.04,0-36.35-15-36.35-36.25s16.31-36.15,36.35-36.15,36.15,14.9,36.15,36.15-16.11,36.25-36.15,36.25Zm0-15.71c11.28,0,18.63-8.16,18.63-20.54s-7.35-20.54-18.63-20.54-18.73,7.95-18.73,20.54,7.25,20.54,18.73,20.54Z"/>
      </g>
      <g>
        <path class="cls-1" d="m514.14,176.69h18.23l-25.07,70.68h-21.55l-25.07-70.68h18.33l17.52,53.37,17.62-53.37Z"/>
        <path class="cls-1" d="m582.81,190.48h-26.08v14.3h23.06v13.29h-23.06v15.51h26.08v13.79h-43.3v-70.68h43.3v13.79Z"/>
        <path class="cls-1" d="m611.2,176.69v57.39h22.55v13.29h-39.77v-70.68h17.22Z"/>
        <path class="cls-1" d="m675.44,248.08c-20.04,0-36.35-15-36.35-36.25s16.31-36.15,36.35-36.15,36.15,14.9,36.15,36.15-16.11,36.25-36.15,36.25Zm0-15.71c11.28,0,18.63-8.16,18.63-20.54s-7.35-20.54-18.63-20.54-18.73,7.95-18.73,20.54,7.25,20.54,18.73,20.54Z"/>
        <path class="cls-1" d="m769.88,189.78l-30.41,43.5h30.41v14.1h-49.94v-13.09l30.21-43.5h-30.21v-14.1h49.94v13.09Z"/>
      </g>
    </g>
  </g>
</svg>