<svg id="Capa_1" data-name="Capa 1" xmlns="http://www.w3.org/2000/svg" viewBox="0 0 770.05 328.73"><title>Logo_espacio_veloz_m</title><g id="UDYNvt.tif"><path d="M465.38,626.72c0-25.91-.1-51.83.08-77.74,0-5.13-1.95-8.18-6.37-10.58q-72.84-39.53-145.6-79.25c-.9-.49-2.08-.72-2.2-2-.15-1.56,1.26-1.78,2.25-2.32,15.36-8.41,30.76-16.72,46-25.26,4.11-2.3,7.65-2.2,11.76,0q71.31,39.06,142.78,77.84c4.66,2.53,6.44,5.68,6.42,10.9q-.3,64-.24,128c0,8.37.34,16.74.73,25.1.32,6.79-2.55,11.46-8.48,14.62-14.06,7.49-28.06,15.1-42.09,22.65-4.34,2.34-5.1,1.92-5.11-3.11q0-39.46,0-78.91Z" transform="translate(-210.56 -427.92)" style="fill:#1b1642"/><path d="M436,689.64c0,10.6-.1,21.19,0,31.79.06,4.41-1.56,7.25-5.58,9.36-14.79,7.78-29.43,15.84-44.14,23.78-4.82,2.6-5.71,2.16-5.49-3.28.83-19.88-.15-39.78.72-59.64.29-6.84-2.35-11-8.18-14.14q-59.62-32.25-119.13-64.75c-12.28-6.68-24.48-13.47-36.85-20-4.72-2.48-6.77-5.85-6.71-11.25.24-20.4.68-40.83-.08-61.21-.26-7.26,2.61-10.37,8.2-13.29,13.75-7.22,27.32-14.79,41-22.2,4.35-2.37,4.51-2.35,4.89,2.7.74,9.79.35,19.61.39,29.42.06,11.38.2,22.77-.07,34.14-.11,4.84,1.72,7.77,5.89,10q54.26,29.39,108.41,59c17.09,9.3,34.13,18.68,51.26,27.89,3.63,1.95,5.5,4.58,5.48,8.69C435.94,667.66,436,678.65,436,689.64Z" transform="translate(-210.56 -427.92)" style="fill:#1b1642"/><path d="M436,588.64c0,8.51,0,17,0,25.52,0,3.65-1.06,4.29-4.2,2.57q-66-36.11-132-72.22a7.38,7.38,0,0,1-4.29-7.23c.15-16.74.13-33.48.18-50.23,0-3.86,1.43-4.71,4.76-2.89q62.94,34.32,125.86,68.7c10.27,5.64,9.85,3.5,9.73,16.55-.06,6.41,0,12.82,0,19.23Z" transform="translate(-210.56 -427.92)" style="fill:#1b1642"/><path d="M350.59,727.65q0,12.36,0,24.73c0,1.41.35,3-1.16,3.91s-2.65-.32-3.87-1q-25.67-13.93-51.32-27.86c-25.81-14-51.59-28.17-77.45-42.13-4.31-2.33-6.2-5.48-6.16-10.36.13-16.49,0-33,0-49.45,0-3.08,1.23-3.84,3.81-2.42q38.47,21.07,77,42.16,27,14.75,54.08,29.3c3.7,2,5.25,4.57,5.13,8.76-.22,8.11-.06,16.22-.06,24.34Z" transform="translate(-210.56 -427.92)" style="fill:#1b1642"/></g><path d="M594.48,527.8H568.4v14.3h23.05v13.29H568.4V570.9h26.08v13.79h-43.3V514h43.3Z" transform="translate(-210.56 -427.92)" style="fill:#1b1642"/><path d="M631.22,585.4c-15.2,0-27.08-7.56-27.58-21.85H622c.5,5.43,3.93,8.05,8.76,8.05,5,0,8.26-2.52,8.26-6.64,0-13.09-35.34-6.05-35.14-31.12,0-13.39,11-20.84,25.77-20.84,15.41,0,25.78,7.65,26.48,21.15H637.47c-.31-4.54-3.53-7.26-8.16-7.36-4.13-.1-7.25,2-7.25,6.45,0,12.28,34.94,6.75,34.94,30.41C657,575.53,647.74,585.4,631.22,585.4Z" transform="translate(-210.56 -427.92)" style="fill:#1b1642"/><path d="M695.46,559.32H684.79v25.37H667.57V514h27.89c17.32,0,26,9.76,26,22.75C721.44,548.44,713.48,559.32,695.46,559.32Zm-1.31-13.7c6.85,0,9.77-3.42,9.77-8.86s-2.92-8.86-9.77-8.86h-9.36v17.72Z" transform="translate(-210.56 -427.92)" style="fill:#1b1642"/><path d="M774.4,572.21H748l-4.23,12.48h-18L751.34,514h19.94l25.57,70.68H778.63ZM761.21,533l-8.66,25.87H770Z" transform="translate(-210.56 -427.92)" style="fill:#1b1642"/><path d="M837.22,513.2c16.82,0,29.51,9.47,33.54,24.77H851.83c-2.93-6-8.26-9.06-14.81-9.06-10.57,0-17.82,7.85-17.82,20.34s7.25,20.34,17.82,20.34c6.55,0,11.88-3,14.81-9.06h18.93c-4,15.3-16.72,24.66-33.54,24.66-20.84,0-35.54-14.8-35.54-35.94S816.38,513.2,837.22,513.2Z" transform="translate(-210.56 -427.92)" style="fill:#1b1642"/><path d="M881.32,514h17.22v70.68H881.32Z" transform="translate(-210.56 -427.92)" style="fill:#1b1642"/><path d="M944.46,585.4c-20,0-36.35-15-36.35-36.25S924.42,513,944.46,513s36.14,14.9,36.14,36.15S964.49,585.4,944.46,585.4Zm0-15.71c11.27,0,18.62-8.16,18.62-20.54,0-12.59-7.35-20.54-18.62-20.54-11.48,0-18.73,7.95-18.73,20.54C925.73,561.53,933,569.69,944.46,569.69Z" transform="translate(-210.56 -427.92)" style="fill:#1b1642"/><path d="M724.7,604.61h18.22l-25.07,70.68H696.3l-25.07-70.68h18.33L707.08,658Z" transform="translate(-210.56 -427.92)" style="fill:#1b1642"/><path d="M793.37,618.4H767.29v14.3h23.05V646H767.29V661.5h26.08v13.79h-43.3V604.61h43.3Z" transform="translate(-210.56 -427.92)" style="fill:#1b1642"/><path d="M821.76,604.61V662h22.55v13.29H804.54V604.61Z" transform="translate(-210.56 -427.92)" style="fill:#1b1642"/><path d="M886,676c-20,0-36.35-15-36.35-36.25S866,603.6,886,603.6s36.15,14.9,36.15,36.15S906,676,886,676Zm0-15.71c11.28,0,18.63-8.16,18.63-20.54,0-12.59-7.35-20.54-18.63-20.54-11.48,0-18.73,7.95-18.73,20.54C867.26,652.13,874.51,660.29,886,660.29Z" transform="translate(-210.56 -427.92)" style="fill:#1b1642"/><path d="M980.44,617.7,950,661.19h30.41v14.1h-50V662.2l30.21-43.5H930.49V604.61h50Z" transform="translate(-210.56 -427.92)" style="fill:#1b1642"/></svg>